# xmcd
#
# Track frame offsets:
#	150
#	29367
#	44437
#	59989
#	73020
#	86738
#	98637
#	111583
#	123237
#	135237
#	146332
#	161710
#	174495
#	185713
#	196373
#
# Disc length: 2863
#
# Revision: 2
# Processed by: cddbd v1.5.1PL0 Copyright (c) Steve Scherf et al.
# Submitted via: NotifyCDPlayer(CDDB) 1.60beta6
# Normalized: r1:TDELIM( - )
#
DISCID=df0b2d0f
DTITLE=Various Artist - This is Soul [CD1]
DYEAR=1900
DGENRE=
TTITLE0=Al Green - For the good times
TTITLE1=O.V. Wright - You're gonna make me cry
TTITLE2=Joe Tex - Buying a book
TTITLE3=Laura Lee - Dirty man
TTITLE4=Irma Thomas - I've been loving you too long
TTITLE5=Little Milton - We're gonna make it
TTITLE6=Ann Pebbles - Part time love
TTITLE7=Etta James - I'd rather go blind
TTITLE8=Aaron Neville - Tell it like it is
TTITLE9=Johnny Ace - Pledging my love
TTITLE10=Chuck Jackson - Any day now
TTITLE11=Arthur Alexander - Anna (go to him)
TTITLE12=Bobby Moore and The Rythm Aces - Searchin' for my love
TTITLE13=Lee Andrews And The Hearts - Teardrops
TTITLE14=The Dells - Oh, what a night
EXTD=
EXTT0=
EXTT1=
EXTT2=
EXTT3=
EXTT4=
EXTT5=
EXTT6=
EXTT7=
EXTT8=
EXTT9=
EXTT10=
EXTT11=
EXTT12=
EXTT13=
EXTT14=
PLAYORDER=
